<mxfile host="app.diagrams.net" modified="2022-09-22T08:45:24.110Z" agent="5.0 (Macintosh; Intel Mac OS X 10_15_7) AppleWebKit/537.36 (KHTML, like Gecko) Chrome/104.0.0.0 Safari/537.36" etag="lLbrLVs7xlFw0aAKBEz0" version="20.2.7" type="github">
  <diagram id="Ej3LhaTyPbsc5B2XoD5L" name="第 1 页">
    <mxGraphModel dx="1426" dy="768" grid="1" gridSize="10" guides="1" tooltips="1" connect="1" arrows="1" fold="1" page="1" pageScale="1" pageWidth="1654" pageHeight="1169" math="0" shadow="0">
      <root>
        <mxCell id="0" />
        <mxCell id="1" parent="0" />
        <mxCell id="QVGyqUuT8xVExBZH8TRc-80" value="&lt;font style=&quot;font-size: 20px; line-height: 1.7;&quot; face=&quot;Comic Sans MS&quot;&gt;Proxy的上行：发送给目标网站的request+发送给客户端的response&lt;br&gt;Proxy的下行：用户发送的request+网站发送的response&lt;/font&gt;" style="text;html=1;align=left;verticalAlign=middle;resizable=0;points=[];autosize=1;strokeColor=none;fillColor=none;" vertex="1" parent="1">
          <mxGeometry x="380" y="190" width="620" height="80" as="geometry" />
        </mxCell>
        <mxCell id="QVGyqUuT8xVExBZH8TRc-81" value="" style="group" vertex="1" connectable="0" parent="1">
          <mxGeometry x="330" y="310" width="690" height="95" as="geometry" />
        </mxCell>
        <mxCell id="QVGyqUuT8xVExBZH8TRc-60" value="" style="edgeStyle=orthogonalEdgeStyle;fontSize=15;html=1;endArrow=blockThin;endFill=1;rounded=0;strokeWidth=2;endSize=4;startSize=4;dashed=0;strokeColor=#4284F3;" edge="1" parent="QVGyqUuT8xVExBZH8TRc-81">
          <mxGeometry width="100" relative="1" as="geometry">
            <mxPoint x="120" y="30" as="sourcePoint" />
            <mxPoint x="220" y="30" as="targetPoint" />
          </mxGeometry>
        </mxCell>
        <mxCell id="QVGyqUuT8xVExBZH8TRc-61" value="Users" style="strokeColor=#dddddd;shadow=1;strokeWidth=1;rounded=1;absoluteArcSize=1;arcSize=2;labelPosition=center;verticalLabelPosition=middle;align=center;verticalAlign=bottom;spacingLeft=0;fontColor=#999999;fontSize=15;whiteSpace=wrap;spacingBottom=2;" vertex="1" parent="QVGyqUuT8xVExBZH8TRc-81">
          <mxGeometry y="10" width="70" height="85" as="geometry" />
        </mxCell>
        <mxCell id="QVGyqUuT8xVExBZH8TRc-62" value="" style="sketch=0;dashed=0;connectable=0;html=1;fillColor=#757575;strokeColor=none;shape=mxgraph.gcp2.users;part=1;fontSize=15;" vertex="1" parent="QVGyqUuT8xVExBZH8TRc-61">
          <mxGeometry x="0.5" width="50" height="31.5" relative="1" as="geometry">
            <mxPoint x="-25" y="19.25" as="offset" />
          </mxGeometry>
        </mxCell>
        <mxCell id="QVGyqUuT8xVExBZH8TRc-65" value="" style="strokeColor=#dddddd;shadow=1;strokeWidth=1;rounded=1;absoluteArcSize=1;arcSize=2;fontSize=15;" vertex="1" parent="QVGyqUuT8xVExBZH8TRc-81">
          <mxGeometry x="270" y="22.5" width="150" height="60" as="geometry" />
        </mxCell>
        <mxCell id="QVGyqUuT8xVExBZH8TRc-66" value="&lt;font color=&quot;#000000&quot; style=&quot;font-size: 15px;&quot;&gt;Proxy&lt;/font&gt;&lt;br style=&quot;font-size: 15px;&quot;&gt;Forward" style="editableCssRules=.*;html=1;fontColor=#999999;shape=image;verticalLabelPosition=middle;labelBackgroundColor=#ffffff;verticalAlign=middle;labelPosition=right;align=left;spacingLeft=20;part=1;points=[];imageAspect=0;image=data:image/svg+xml,PHN2ZyB4bWxucz0iaHR0cDovL3d3dy53My5vcmcvMjAwMC9zdmciIHhtbG5zOnY9Imh0dHBzOi8vdmVjdGEuaW8vbmFubyIgd2lkdGg9IjIwIiBoZWlnaHQ9IjE5LjI5OTk5OTIzNzA2MDU0NyIgdmlld0JveD0iMCAwIDIwIDE5LjI5OTk5OTIzNzA2MDU0NyI+JiN4YTsJPHN0eWxlIHR5cGU9InRleHQvY3NzIj4mI3hhOwkuc3Qwe2ZpbGw6IzQyODVmNDt9JiN4YTsJLnN0MXtmaWxsOiM2NjlkZjY7fSYjeGE7CTwvc3R5bGU+JiN4YTsJPHBhdGggY2xhc3M9InN0MCIgZD0iTTIuNDMgNi4xSDBWMi42N2gzLjk0bDguNCAxMC40OWgyLjM0di0yLjcyTDIwIDE0Ljg3bC01LjMyIDQuNDN2LTIuNzFoLTMuODd6Ii8+JiN4YTsJPHBhdGggY2xhc3M9InN0MSIgZD0iTTE0LjY4IDYuMTR2Mi43MkwyMCA0LjQzIDE0LjY4IDB2Mi43MWgtMy44N0w4LjMzIDUuODJsMi4xMyAyLjY3IDEuODgtMi4zNXpNMCAxMy4ydjMuNDNoMy45NGwyLjUyLTMuMTUtMi4xMy0yLjY3LTEuOSAyLjM5eiIvPiYjeGE7PC9zdmc+;fontSize=15;" vertex="1" parent="QVGyqUuT8xVExBZH8TRc-65">
          <mxGeometry width="30" height="28" relative="1" as="geometry">
            <mxPoint x="15" y="16" as="offset" />
          </mxGeometry>
        </mxCell>
        <mxCell id="QVGyqUuT8xVExBZH8TRc-71" value="Server" style="strokeColor=#dddddd;shadow=1;strokeWidth=1;rounded=1;absoluteArcSize=1;arcSize=2;labelPosition=center;verticalLabelPosition=middle;align=center;verticalAlign=bottom;spacingLeft=0;fontColor=#999999;fontSize=15;whiteSpace=wrap;spacingBottom=2;" vertex="1" parent="QVGyqUuT8xVExBZH8TRc-81">
          <mxGeometry x="620" y="10" width="70" height="85" as="geometry" />
        </mxCell>
        <mxCell id="QVGyqUuT8xVExBZH8TRc-72" value="" style="sketch=0;dashed=0;connectable=0;html=1;fillColor=#757575;strokeColor=none;shape=mxgraph.gcp2.desktop;part=1;fontSize=15;" vertex="1" parent="QVGyqUuT8xVExBZH8TRc-71">
          <mxGeometry x="0.5" width="50" height="45" relative="1" as="geometry">
            <mxPoint x="-25" y="12.5" as="offset" />
          </mxGeometry>
        </mxCell>
        <mxCell id="QVGyqUuT8xVExBZH8TRc-73" value="" style="edgeStyle=orthogonalEdgeStyle;fontSize=15;html=1;endArrow=blockThin;endFill=1;rounded=0;strokeWidth=2;endSize=4;startSize=4;dashed=0;strokeColor=#4284F3;" edge="1" parent="QVGyqUuT8xVExBZH8TRc-81">
          <mxGeometry width="100" relative="1" as="geometry">
            <mxPoint x="470" y="90" as="sourcePoint" />
            <mxPoint x="570" y="90" as="targetPoint" />
          </mxGeometry>
        </mxCell>
        <mxCell id="QVGyqUuT8xVExBZH8TRc-74" value="" style="edgeStyle=orthogonalEdgeStyle;fontSize=15;html=1;endArrow=blockThin;endFill=1;rounded=0;strokeWidth=2;endSize=4;startSize=4;strokeColor=#EA4335;dashed=0;" edge="1" parent="QVGyqUuT8xVExBZH8TRc-81">
          <mxGeometry width="100" relative="1" as="geometry">
            <mxPoint x="570" y="30" as="sourcePoint" />
            <mxPoint x="470" y="30" as="targetPoint" />
          </mxGeometry>
        </mxCell>
        <mxCell id="QVGyqUuT8xVExBZH8TRc-75" value="" style="edgeStyle=orthogonalEdgeStyle;fontSize=15;html=1;endArrow=blockThin;endFill=1;rounded=0;strokeWidth=2;endSize=4;startSize=4;strokeColor=#EA4335;dashed=0;" edge="1" parent="QVGyqUuT8xVExBZH8TRc-81">
          <mxGeometry width="100" relative="1" as="geometry">
            <mxPoint x="220" y="94" as="sourcePoint" />
            <mxPoint x="120" y="94" as="targetPoint" />
          </mxGeometry>
        </mxCell>
        <mxCell id="QVGyqUuT8xVExBZH8TRc-76" value="request" style="text;html=1;align=center;verticalAlign=middle;resizable=0;points=[];autosize=1;strokeColor=none;fillColor=none;fontSize=15;" vertex="1" parent="QVGyqUuT8xVExBZH8TRc-81">
          <mxGeometry x="125" width="70" height="30" as="geometry" />
        </mxCell>
        <mxCell id="QVGyqUuT8xVExBZH8TRc-77" value="request" style="text;html=1;align=center;verticalAlign=middle;resizable=0;points=[];autosize=1;strokeColor=none;fillColor=none;fontSize=15;" vertex="1" parent="QVGyqUuT8xVExBZH8TRc-81">
          <mxGeometry x="485" y="60" width="70" height="30" as="geometry" />
        </mxCell>
        <mxCell id="QVGyqUuT8xVExBZH8TRc-78" value="response" style="text;html=1;align=center;verticalAlign=middle;resizable=0;points=[];autosize=1;strokeColor=none;fillColor=none;fontSize=15;" vertex="1" parent="QVGyqUuT8xVExBZH8TRc-81">
          <mxGeometry x="475" width="90" height="30" as="geometry" />
        </mxCell>
        <mxCell id="QVGyqUuT8xVExBZH8TRc-79" value="response" style="text;html=1;align=center;verticalAlign=middle;resizable=0;points=[];autosize=1;strokeColor=none;fillColor=none;fontSize=15;" vertex="1" parent="QVGyqUuT8xVExBZH8TRc-81">
          <mxGeometry x="115" y="65" width="90" height="30" as="geometry" />
        </mxCell>
        <mxCell id="QVGyqUuT8xVExBZH8TRc-83" value="下" style="text;html=1;align=center;verticalAlign=middle;resizable=0;points=[];autosize=1;strokeColor=none;fillColor=none;fontSize=15;fontFamily=Comic Sans MS;" vertex="1" parent="QVGyqUuT8xVExBZH8TRc-81">
          <mxGeometry x="420" y="10" width="40" height="30" as="geometry" />
        </mxCell>
        <mxCell id="QVGyqUuT8xVExBZH8TRc-85" value="上" style="text;html=1;align=center;verticalAlign=middle;resizable=0;points=[];autosize=1;strokeColor=none;fillColor=none;fontSize=15;fontFamily=Comic Sans MS;" vertex="1" parent="QVGyqUuT8xVExBZH8TRc-81">
          <mxGeometry x="420" y="65" width="40" height="30" as="geometry" />
        </mxCell>
        <mxCell id="QVGyqUuT8xVExBZH8TRc-84" value="上" style="text;html=1;align=center;verticalAlign=middle;resizable=0;points=[];autosize=1;strokeColor=none;fillColor=none;fontSize=15;fontFamily=Comic Sans MS;" vertex="1" parent="QVGyqUuT8xVExBZH8TRc-81">
          <mxGeometry x="220" y="65" width="40" height="30" as="geometry" />
        </mxCell>
        <mxCell id="QVGyqUuT8xVExBZH8TRc-82" value="下" style="text;html=1;align=center;verticalAlign=middle;resizable=0;points=[];autosize=1;strokeColor=none;fillColor=none;fontSize=15;fontFamily=Comic Sans MS;" vertex="1" parent="QVGyqUuT8xVExBZH8TRc-81">
          <mxGeometry x="220" y="10" width="40" height="30" as="geometry" />
        </mxCell>
      </root>
    </mxGraphModel>
  </diagram>
</mxfile>
